<svg width="1110" height="1110" viewBox="0 0 1110 1110" fill="none" xmlns="http://www.w3.org/2000/svg">
<path d="M804.667 876L555 697.667L305.333 876V305.333C305.333 286.415 312.849 268.271 326.226 254.893C339.604 241.515 357.748 234 376.667 234H733.333C752.252 234 770.396 241.515 783.774 254.893C797.151 268.271 804.667 286.415 804.667 305.333V876Z" stroke="#F56565" stroke-width="70.3346" stroke-linecap="round" stroke-linejoin="round"/>
<g clip-path="url(#clip0)">
<path d="M533.715 445.249C538.543 441.164 543 437.079 547.828 433.365C544.114 430.765 540.771 428.537 537.429 426.309C533.344 429.651 529.258 433.365 525.173 437.079C529.258 438.565 532.23 441.536 533.715 445.249Z" fill="white"/>
<path d="M521.79 463.819C530.61 463.842 537.778 457.043 537.8 448.634C537.822 440.224 530.69 433.388 521.871 433.365C513.051 433.342 505.883 440.14 505.861 448.55C505.839 456.959 512.971 463.795 521.79 463.819Z" fill="white"/>
<path d="M536.315 534.01C514.403 545.895 495.462 548.866 486.921 540.695C475.036 529.182 485.806 499.1 511.803 468.647C507.718 467.533 504.376 464.561 502.519 460.848C464.638 503.185 447.554 545.895 464.266 561.864C478.007 575.234 511.061 566.321 547.456 542.552C543.742 539.952 540.029 536.981 536.315 534.01Z" fill="white"/>
<path d="M562.312 432.622C563.426 428.537 566.397 425.195 570.111 423.338C526.287 387.314 481.721 371.344 465.009 387.314C451.268 400.683 460.181 432.251 485.064 467.161C488.035 463.447 491.006 460.105 493.977 456.391C481.721 435.222 478.379 417.024 486.921 408.482C499.176 396.97 530.373 407.74 562.312 432.622Z" fill="white"/>
<path d="M592.022 443.021C590.537 446.735 587.194 449.706 583.48 451.192C589.051 456.762 594.251 461.962 598.707 467.533C601.307 464.19 603.907 460.848 605.764 457.505C601.678 452.677 596.85 447.849 592.022 443.021Z" fill="white"/>
<path d="M583.109 457.877C592.022 457.877 599.079 451.192 599.079 442.65C599.079 434.108 592.022 427.423 583.109 427.423C574.196 427.423 567.14 434.108 567.14 442.65C567.14 450.82 574.196 457.877 583.109 457.877Z" fill="white"/>
<path d="M624.333 408.854C636.217 420.367 625.447 450.449 599.45 480.902C603.535 482.016 606.878 484.988 608.735 488.701C646.244 446.364 663.328 403.283 646.616 387.313C632.875 374.315 599.821 383.228 563.797 406.997C567.511 409.597 571.225 412.568 574.939 415.539C596.85 403.654 615.791 400.683 624.333 408.854Z" fill="white"/>
<path d="M580.138 501.7C574.567 506.899 568.625 511.727 563.054 516.184C566.768 518.784 570.111 521.012 573.824 523.24C579.024 519.155 583.852 514.698 589.051 509.87C584.966 508.385 581.995 505.414 580.138 501.7Z" fill="white"/>
<path d="M589.278 485.924C580.458 485.9 573.289 492.697 573.266 501.107C573.243 509.516 580.374 516.353 589.194 516.378C598.013 516.402 605.182 509.604 605.205 501.195C605.228 492.785 598.097 485.948 589.278 485.924Z" fill="white"/>
<path d="M527.773 498.729C522.202 493.158 517.003 487.959 512.546 482.388C509.946 485.73 507.347 489.073 505.49 492.415C509.946 497.243 514.403 502.071 519.231 506.899C520.717 503.185 523.688 500.214 527.773 498.729Z" fill="white"/>
<path d="M626.19 482.759C623.219 486.473 620.248 489.816 617.276 493.529C629.532 514.698 632.875 532.525 623.961 541.067C611.706 552.579 580.509 541.809 548.57 517.298C547.456 521.383 544.485 524.726 540.771 526.583C584.966 562.607 629.532 578.948 646.244 562.978C659.986 549.237 651.072 517.298 626.19 482.759Z" fill="white"/>
<path d="M544.183 507.099C544.205 498.69 537.073 491.854 528.253 491.831C519.434 491.807 512.266 498.606 512.244 507.015C512.222 515.425 519.354 522.261 528.174 522.284C536.993 522.307 544.161 515.509 544.183 507.099Z" fill="white"/>
</g>
<defs>
<clipPath id="clip0">
<rect width="196" height="189" fill="white" transform="translate(457 381)"/>
</clipPath>
</defs>
</svg>
