<svg width="856" height="856" viewBox="0 0 856 856" fill="none" xmlns="http://www.w3.org/2000/svg">
<path d="M677.667 749L428 570.667L178.333 749V178.333C178.333 159.415 185.849 141.271 199.226 127.893C212.604 114.515 230.748 107 249.667 107H606.333C625.252 107 643.396 114.515 656.774 127.893C670.151 141.271 677.667 159.415 677.667 178.333V749Z" stroke="#FBBF24" stroke-width="70.3346" stroke-linecap="round" stroke-linejoin="round"/>
<g clip-path="url(#clip0)">
<path d="M406.715 318.249C411.543 314.164 416 310.079 420.828 306.365C417.114 303.765 413.771 301.537 410.429 299.309C406.344 302.651 402.258 306.365 398.173 310.079C402.258 311.565 405.23 314.536 406.715 318.249Z" fill="#FBBF24"/>
<path d="M394.79 336.819C403.61 336.842 410.778 330.043 410.8 321.634C410.822 313.224 403.69 306.388 394.871 306.365C386.051 306.342 378.883 313.14 378.861 321.55C378.839 329.959 385.971 336.795 394.79 336.819Z" fill="#FBBF24"/>
<path d="M409.315 407.01C387.403 418.895 368.462 421.866 359.921 413.695C348.036 402.182 358.806 372.1 384.803 341.647C380.718 340.533 377.376 337.561 375.519 333.848C337.638 376.185 320.554 418.895 337.266 434.864C351.007 448.234 384.061 439.321 420.456 415.552C416.742 412.952 413.029 409.981 409.315 407.01Z" fill="#FBBF24"/>
<path d="M435.312 305.622C436.426 301.537 439.397 298.195 443.111 296.338C399.287 260.314 354.721 244.344 338.009 260.314C324.268 273.683 333.181 305.251 358.064 340.161C361.035 336.447 364.006 333.105 366.977 329.391C354.721 308.222 351.379 290.024 359.921 281.482C372.176 269.97 403.373 280.74 435.312 305.622Z" fill="#FBBF24"/>
<path d="M465.022 316.021C463.537 319.735 460.194 322.706 456.48 324.192C462.051 329.762 467.251 334.962 471.707 340.533C474.307 337.19 476.907 333.848 478.764 330.505C474.678 325.677 469.85 320.849 465.022 316.021Z" fill="#FBBF24"/>
<path d="M456.109 330.877C465.022 330.877 472.079 324.192 472.079 315.65C472.079 307.108 465.022 300.423 456.109 300.423C447.196 300.423 440.14 307.108 440.14 315.65C440.14 323.82 447.196 330.877 456.109 330.877Z" fill="#FBBF24"/>
<path d="M497.333 281.854C509.217 293.367 498.447 323.449 472.45 353.902C476.535 355.016 479.878 357.988 481.735 361.701C519.244 319.364 536.328 276.283 519.616 260.313C505.875 247.315 472.821 256.228 436.797 279.997C440.511 282.597 444.225 285.568 447.939 288.539C469.85 276.654 488.791 273.683 497.333 281.854Z" fill="#FBBF24"/>
<path d="M453.138 374.7C447.567 379.899 441.625 384.727 436.054 389.184C439.768 391.784 443.111 394.012 446.824 396.24C452.024 392.155 456.852 387.698 462.051 382.87C457.966 381.385 454.995 378.414 453.138 374.7Z" fill="#FBBF24"/>
<path d="M462.278 358.924C453.458 358.9 446.289 365.697 446.266 374.107C446.243 382.516 453.374 389.353 462.194 389.378C471.013 389.402 478.182 382.604 478.205 374.195C478.228 365.785 471.097 358.948 462.278 358.924Z" fill="#FBBF24"/>
<path d="M400.773 371.729C395.202 366.158 390.003 360.959 385.546 355.388C382.946 358.73 380.347 362.073 378.49 365.415C382.946 370.243 387.403 375.071 392.231 379.899C393.717 376.185 396.688 373.214 400.773 371.729Z" fill="#FBBF24"/>
<path d="M499.19 355.759C496.219 359.473 493.248 362.816 490.276 366.529C502.532 387.698 505.875 405.525 496.961 414.067C484.706 425.579 453.509 414.809 421.57 390.298C420.456 394.383 417.485 397.726 413.771 399.583C457.966 435.607 502.532 451.948 519.244 435.978C532.986 422.237 524.072 390.298 499.19 355.759Z" fill="#FBBF24"/>
<path d="M417.183 380.099C417.205 371.69 410.073 364.854 401.253 364.831C392.434 364.807 385.266 371.606 385.244 380.015C385.222 388.425 392.354 395.261 401.174 395.284C409.993 395.307 417.161 388.509 417.183 380.099Z" fill="#FBBF24"/>
</g>
<defs>
<clipPath id="clip0">
<rect width="196" height="189" fill="white" transform="translate(330 254)"/>
</clipPath>
</defs>
</svg>
